{"title":"Katy Perry - Birthday (2014) 720p x264 AAC [GWC].mp4","uid":10033881,"size":118076915,"categoryP":"video","categoryS":"music_videos","magnet":"?xt=urn:btih:ab77bf5555e67d7c85bfeaaa1f176e73b6e49eb2&amp;dn=Katy+Perry+-+Birthday+%282014%29+720p+x264+AAC+%5BGWC%5D.mp4&amp;tr=udp%3A%2F%2Ftracker.openbittorrent.com%3A80&amp;tr=udp%3A%2F%2Fopen.demonii.com%3A1337&amp;tr=udp%3A%2F%2Ftracker.coppersurfer.tk%3A6969&amp;tr=udp%3A%2F%2Fexodus.desync.com%3A6969","seeders":2,"leechers":0,"uploader":"canc232","files":1,"time":1398377756,"description":"Katy Perry - Birthday (2014) 720p x264 AAC [GWC] \n\n\nCOVER : &lt;a href=&quot;\nhttp://i.imgur.com/s35bOzd.jpg&quot; rel=&quot;nofollow&quot; target=&quot;_NEW&quot;&gt;\nhttp://i.imgur.com/s35bOzd.jpg&lt;/a&gt;\n\n\nTHUMBNAIL IMAGE : &lt;a href=&quot;\nhttp://img842.imageshack.us/img842/5606/u54td.jpg&quot; rel=&quot;nofollow&quot; target=&quot;_NEW&quot;&gt;\nhttp://img842.imageshack.us/img842/5606/u54td.jpg&lt;/a&gt;\n\n\nMEDIA INFO :\nGeneral \nFormat : MPEG-4 \nFormat profile : Base Media \nFile size : 113 MiB \nDuration : 8mn 0s \nOverall bit rate mode : Variable \nOverall bit rate : 1 965 Kbps \n\nVideo \nFormat : AVC \nFormat profile : &lt;a class=&quot;__cf_email__&quot; href=&quot;/cdn-cgi/l/email-protection&quot; data-cfemail=&quot;662b070f08262a554857&quot;&gt;[email&amp;#160;protected]&lt;/a&gt;&lt;script cf-hash='f9e31' type=&quot;text/javascript&quot;&gt;\n/* &lt;![CDATA[ */!function(){try{var t=&quot;currentScript&quot;in document?document.currentScript:function(){for(var t=document.getElementsByTagName(&quot;script&quot;),e=t.length;e--;)if(t[e].getAttribute(&quot;cf-hash&quot;))return t[e]}();if(t&amp;&amp;t.previousSibling){var e,r,n,i,c=t.previousSibling,a=c.getAttribute(&quot;data-cfemail&quot;);if(a){for(e=&quot;&quot;,r=parseInt(a.substr(0,2),16),n=2;a.length-n;n+=2)i=parseInt(a.substr(n,2),16)^r,e+=String.fromCharCode(i);e=document.createTextNode(e),c.parentNode.replaceChild(e,c)}}}catch(u){}}();/* ]]&gt; */&lt;/script&gt; \nFormat settings, CABAC : Yes \nFormat settings, ReFrames : 3 frames \nDuration : 8mn 0s \nBit rate : 1 877 Kbps \nMaximum bit rate : 4 605 Kbps \nWidth : 1 280 pixels \nHeight : 720 pixels \nDisplay aspect ratio : 16:9 \nFrame rate mode : Variable \nFrame rate : 23.976 fps \nStream size : 108 MiB (95%) \nTitle : Katy Perry - Birthday (2014) 720p x264 AAC [GWC] \n\nAudio \nFormat : AAC \nFormat profile : LC \nDuration : 8mn 0s \nBit rate mode : Variable \nChannel(s) : 2 channels \nSampling rate : 48.0 KHz \nStream size : 4.81 MiB (4%) \nLanguage : English \n","torrent":{"xt":"urn:btih:ab77bf5555e67d7c85bfeaaa1f176e73b6e49eb2","amp;dn":"Katy+Perry+-+Birthday+%282014%29+720p+x264+AAC+%5BGWC%5D.mp4","amp;tr":["udp%3A%2F%2Ftracker.openbittorrent.com%3A80","udp%3A%2F%2Fopen.demonii.com%3A1337","udp%3A%2F%2Ftracker.coppersurfer.tk%3A6969","udp%3A%2F%2Fexodus.desync.com%3A6969"],"infoHash":"ab77bf5555e67d7c85bfeaaa1f176e73b6e49eb2","infoHashBuffer":{"type":"Buffer","data":[171,119,191,85,85,230,125,124,133,191,234,170,31,23,110,115,182,228,158,178]},"announce":[],"urlList":[]}}